<svg xmlns="http://www.w3.org/2000/svg" xmlns:xlink="http://www.w3.org/1999/xlink" width="500" zoomAndPan="magnify" viewBox="0 0 375 374.999991" height="500" preserveAspectRatio="xMidYMid meet" version="1.0"><defs><g/></defs><path fill="#1b783f" d="M 316.925781 72.925781 C 280.015625 98.816406 256.65625 142.21875 256.65625 187.265625 C 256.65625 232.269531 280.078125 275.710938 316.917969 301.613281 C 318.652344 299.664062 320.339844 297.679688 321.984375 295.65625 C 323.625 293.632812 325.222656 291.574219 326.769531 289.476562 C 328.320312 287.378906 329.820312 285.25 331.273438 283.085938 C 332.722656 280.921875 334.125 278.726562 335.476562 276.496094 C 336.832031 274.269531 338.132812 272.011719 339.382812 269.722656 C 340.632812 267.4375 341.828125 265.121094 342.972656 262.78125 C 344.117188 260.441406 345.207031 258.074219 346.246094 255.683594 C 347.28125 253.289062 348.261719 250.878906 349.191406 248.441406 C 350.117188 246.003906 350.988281 243.550781 351.804688 241.074219 C 352.621094 238.597656 353.378906 236.105469 354.082031 233.597656 C 354.78125 231.085938 355.425781 228.5625 356.015625 226.023438 C 356.601562 223.484375 357.132812 220.933594 357.601562 218.367188 C 358.074219 215.804688 358.488281 213.234375 358.839844 210.652344 C 359.195312 208.066406 359.492188 205.480469 359.726562 202.882812 C 359.964844 200.289062 360.140625 197.6875 360.261719 195.085938 C 360.378906 192.480469 360.4375 189.875 360.4375 187.269531 C 360.4375 184.664062 360.378906 182.058594 360.261719 179.457031 C 360.144531 176.851562 359.964844 174.253906 359.730469 171.65625 C 359.492188 169.0625 359.199219 166.472656 358.84375 163.890625 C 358.488281 161.308594 358.074219 158.734375 357.605469 156.171875 C 357.132812 153.609375 356.605469 151.058594 356.015625 148.519531 C 355.429688 145.976562 354.785156 143.453125 354.082031 140.945312 C 353.382812 138.433594 352.621094 135.941406 351.808594 133.464844 C 350.992188 130.988281 350.121094 128.535156 349.195312 126.097656 C 348.265625 123.664062 347.285156 121.25 346.25 118.859375 C 345.210938 116.464844 344.121094 114.101562 342.976562 111.757812 C 341.832031 109.417969 340.636719 107.101562 339.386719 104.816406 C 338.136719 102.527344 336.835938 100.269531 335.484375 98.042969 C 334.132812 95.8125 332.730469 93.617188 331.277344 91.453125 C 329.824219 89.289062 328.324219 87.15625 326.777344 85.0625 C 325.226562 82.964844 323.632812 80.90625 321.988281 78.882812 C 320.347656 76.859375 318.660156 74.875 316.925781 72.925781 Z M 316.925781 72.925781 " fill-opacity="1" fill-rule="nonzero"/><path fill="#1b783f" d="M 233.589844 187.265625 C 233.59375 184.089844 233.691406 180.917969 233.882812 177.75 C 234.074219 174.582031 234.359375 171.421875 234.738281 168.269531 C 235.117188 165.117188 235.585938 161.976562 236.148438 158.855469 C 236.710938 155.730469 237.367188 152.625 238.113281 149.539062 C 238.859375 146.453125 239.695312 143.390625 240.621094 140.355469 C 241.550781 137.320312 242.5625 134.3125 243.667969 131.335938 C 244.773438 128.359375 245.964844 125.417969 247.242188 122.511719 C 248.519531 119.605469 249.878906 116.738281 251.328125 113.914062 C 252.773438 111.085938 254.304688 108.304688 255.914062 105.570312 C 257.523438 102.835938 259.214844 100.148438 260.984375 97.511719 C 262.753906 94.875 264.597656 92.292969 266.519531 89.765625 C 268.441406 87.238281 270.433594 84.773438 272.503906 82.363281 C 274.570312 79.953125 276.707031 77.605469 278.910156 75.324219 C 281.117188 73.039062 283.386719 70.824219 285.722656 68.671875 C 288.058594 66.523438 290.457031 64.445312 292.917969 62.4375 C 295.375 60.429688 297.890625 58.496094 300.464844 56.632812 C 298.527344 54.945312 296.554688 53.300781 294.542969 51.703125 C 292.535156 50.101562 290.488281 48.546875 288.410156 47.039062 C 286.328125 45.53125 284.21875 44.070312 282.070312 42.65625 C 279.925781 41.242188 277.75 39.878906 275.542969 38.5625 C 273.335938 37.246094 271.101562 35.980469 268.839844 34.765625 C 266.578125 33.546875 264.285156 32.382812 261.972656 31.269531 C 259.65625 30.15625 257.316406 29.097656 254.953125 28.089844 C 252.589844 27.078125 250.207031 26.125 247.800781 25.222656 C 245.394531 24.320312 242.96875 23.476562 240.527344 22.683594 C 238.082031 21.890625 235.621094 21.152344 233.144531 20.46875 C 230.667969 19.785156 228.175781 19.160156 225.671875 18.589844 C 223.167969 18.019531 220.652344 17.503906 218.125 17.046875 C 215.59375 16.585938 213.058594 16.1875 210.511719 15.839844 C 207.964844 15.496094 205.414062 15.210938 202.855469 14.980469 C 200.296875 14.75 197.734375 14.578125 195.167969 14.460938 C 192.601562 14.347656 190.03125 14.289062 187.464844 14.289062 C 184.894531 14.289062 182.324219 14.347656 179.757812 14.460938 C 177.191406 14.578125 174.628906 14.75 172.070312 14.980469 C 169.511719 15.210938 166.960938 15.496094 164.414062 15.839844 C 161.867188 16.1875 159.332031 16.585938 156.800781 17.046875 C 154.273438 17.503906 151.757812 18.019531 149.253906 18.589844 C 146.75 19.160156 144.257812 19.785156 141.78125 20.46875 C 139.304688 21.152344 136.84375 21.890625 134.398438 22.683594 C 131.957031 23.476562 129.53125 24.320312 127.125 25.222656 C 124.71875 26.125 122.335938 27.078125 119.972656 28.089844 C 117.609375 29.097656 115.269531 30.15625 112.953125 31.269531 C 110.640625 32.382812 108.347656 33.546875 106.085938 34.765625 C 103.824219 35.980469 101.589844 37.246094 99.382812 38.5625 C 97.175781 39.878906 95 41.242188 92.855469 42.65625 C 90.707031 44.070312 88.597656 45.53125 86.515625 47.039062 C 84.4375 48.546875 82.390625 50.101562 80.382812 51.703125 C 78.371094 53.300781 76.398438 54.945312 74.460938 56.632812 C 77.035156 58.496094 79.550781 60.429688 82.007812 62.4375 C 84.46875 64.445312 86.867188 66.523438 89.203125 68.671875 C 91.539062 70.824219 93.808594 73.039062 96.015625 75.324219 C 98.21875 77.605469 100.355469 79.953125 102.425781 82.363281 C 104.492188 84.773438 106.484375 87.238281 108.40625 89.765625 C 110.328125 92.292969 112.175781 94.875 113.941406 97.511719 C 115.710938 100.148438 117.402344 102.832031 119.011719 105.570312 C 120.625 108.304688 122.152344 111.085938 123.597656 113.914062 C 125.046875 116.738281 126.410156 119.605469 127.6875 122.511719 C 128.964844 125.417969 130.15625 128.359375 131.257812 131.335938 C 132.363281 134.3125 133.378906 137.316406 134.304688 140.355469 C 135.230469 143.390625 136.066406 146.453125 136.8125 149.539062 C 137.5625 152.625 138.214844 155.730469 138.777344 158.851562 C 139.339844 161.976562 139.8125 165.117188 140.1875 168.269531 C 140.566406 171.421875 140.851562 174.582031 141.042969 177.75 C 141.234375 180.917969 141.332031 184.089844 141.335938 187.265625 C 141.332031 190.441406 141.234375 193.613281 141.042969 196.78125 C 140.851562 199.949219 140.566406 203.109375 140.191406 206.261719 C 139.8125 209.414062 139.339844 212.554688 138.777344 215.679688 C 138.214844 218.800781 137.5625 221.90625 136.816406 224.992188 C 136.070312 228.078125 135.230469 231.140625 134.304688 234.175781 C 133.378906 237.214844 132.363281 240.21875 131.257812 243.195312 C 130.15625 246.171875 128.964844 249.113281 127.6875 252.019531 C 126.410156 254.925781 125.046875 257.792969 123.601562 260.621094 C 122.152344 263.445312 120.625 266.226562 119.015625 268.960938 C 117.402344 271.699219 115.714844 274.382812 113.945312 277.019531 C 112.175781 279.65625 110.328125 282.238281 108.40625 284.765625 C 106.484375 287.292969 104.492188 289.761719 102.425781 292.171875 C 100.359375 294.578125 98.222656 296.925781 96.015625 299.210938 C 93.808594 301.492188 91.539062 303.710938 89.203125 305.859375 C 86.867188 308.007812 84.46875 310.089844 82.007812 312.097656 C 79.550781 314.105469 77.035156 316.039062 74.460938 317.898438 C 76.398438 319.585938 78.371094 321.230469 80.382812 322.832031 C 82.390625 324.429688 84.4375 325.984375 86.515625 327.492188 C 88.597656 329 90.707031 330.460938 92.855469 331.875 C 95 333.289062 97.175781 334.652344 99.382812 335.96875 C 101.589844 337.285156 103.824219 338.550781 106.085938 339.769531 C 108.351562 340.984375 110.640625 342.148438 112.953125 343.261719 C 115.269531 344.375 117.609375 345.4375 119.972656 346.445312 C 122.335938 347.453125 124.71875 348.40625 127.125 349.308594 C 129.53125 350.210938 131.957031 351.058594 134.398438 351.851562 C 136.84375 352.644531 139.304688 353.382812 141.78125 354.0625 C 144.257812 354.746094 146.75 355.375 149.253906 355.945312 C 151.757812 356.515625 154.273438 357.03125 156.804688 357.488281 C 159.332031 357.945312 161.867188 358.347656 164.414062 358.691406 C 166.960938 359.035156 169.511719 359.324219 172.070312 359.554688 C 174.628906 359.78125 177.191406 359.957031 179.757812 360.070312 C 182.324219 360.1875 184.894531 360.242188 187.460938 360.242188 C 190.03125 360.242188 192.601562 360.1875 195.167969 360.070312 C 197.734375 359.957031 200.296875 359.78125 202.855469 359.554688 C 205.414062 359.324219 207.964844 359.035156 210.511719 358.691406 C 213.058594 358.347656 215.59375 357.945312 218.121094 357.488281 C 220.652344 357.03125 223.167969 356.515625 225.671875 355.945312 C 228.175781 355.375 230.667969 354.746094 233.144531 354.0625 C 235.621094 353.382812 238.082031 352.644531 240.527344 351.851562 C 242.96875 351.058594 245.394531 350.210938 247.800781 349.308594 C 250.207031 348.40625 252.589844 347.453125 254.953125 346.445312 C 257.316406 345.4375 259.65625 344.375 261.972656 343.261719 C 264.285156 342.148438 266.574219 340.984375 268.839844 339.769531 C 271.101562 338.550781 273.335938 337.285156 275.542969 335.96875 C 277.75 334.652344 279.925781 333.289062 282.070312 331.875 C 284.21875 330.460938 286.328125 329 288.410156 327.492188 C 290.488281 325.984375 292.535156 324.429688 294.542969 322.832031 C 296.554688 321.230469 298.527344 319.585938 300.464844 317.898438 C 297.890625 316.039062 295.375 314.105469 292.917969 312.097656 C 290.457031 310.089844 288.058594 308.007812 285.722656 305.859375 C 283.386719 303.710938 281.117188 301.492188 278.910156 299.210938 C 276.703125 296.925781 274.570312 294.578125 272.5 292.171875 C 270.433594 289.761719 268.441406 287.292969 266.519531 284.765625 C 264.597656 282.238281 262.753906 279.65625 260.984375 277.019531 C 259.214844 274.382812 257.523438 271.699219 255.914062 268.960938 C 254.300781 266.226562 252.773438 263.445312 251.328125 260.621094 C 249.878906 257.792969 248.519531 254.925781 247.242188 252.019531 C 245.960938 249.113281 244.773438 246.171875 243.667969 243.195312 C 242.5625 240.21875 241.546875 237.214844 240.621094 234.175781 C 239.695312 231.140625 238.859375 228.078125 238.113281 224.992188 C 237.367188 221.90625 236.710938 218.800781 236.148438 215.679688 C 235.585938 212.554688 235.117188 209.414062 234.738281 206.261719 C 234.359375 203.109375 234.074219 199.949219 233.882812 196.78125 C 233.691406 193.613281 233.59375 190.441406 233.589844 187.265625 Z M 233.589844 187.265625 " fill-opacity="1" fill-rule="nonzero"/><path fill="#1b783f" d="M 118.273438 187.265625 C 118.273438 142.214844 94.910156 98.816406 58 72.925781 C 56.265625 74.871094 54.578125 76.855469 52.933594 78.878906 C 51.292969 80.90625 49.695312 82.964844 48.148438 85.058594 C 46.597656 87.15625 45.097656 89.285156 43.644531 91.453125 C 42.195312 93.617188 40.792969 95.8125 39.441406 98.039062 C 38.085938 100.269531 36.785156 102.527344 35.539062 104.8125 C 34.289062 107.101562 33.089844 109.414062 31.945312 111.757812 C 30.800781 114.097656 29.710938 116.464844 28.675781 118.855469 C 27.636719 121.25 26.65625 123.660156 25.730469 126.097656 C 24.800781 128.535156 23.929688 130.988281 23.117188 133.464844 C 22.300781 135.941406 21.542969 138.433594 20.839844 140.945312 C 20.136719 143.453125 19.492188 145.976562 18.90625 148.519531 C 18.316406 151.058594 17.789062 153.609375 17.316406 156.171875 C 16.847656 158.734375 16.433594 161.308594 16.078125 163.890625 C 15.726562 166.472656 15.429688 169.0625 15.195312 171.65625 C 14.957031 174.253906 14.78125 176.851562 14.660156 179.457031 C 14.542969 182.058594 14.484375 184.664062 14.484375 187.269531 C 14.484375 189.878906 14.542969 192.484375 14.660156 195.085938 C 14.78125 197.691406 14.957031 200.289062 15.195312 202.886719 C 15.429688 205.480469 15.726562 208.070312 16.082031 210.652344 C 16.433594 213.234375 16.847656 215.808594 17.320312 218.371094 C 17.792969 220.933594 18.320312 223.484375 18.90625 226.023438 C 19.496094 228.5625 20.140625 231.089844 20.84375 233.597656 C 21.542969 236.109375 22.304688 238.601562 23.117188 241.078125 C 23.933594 243.550781 24.804688 246.007812 25.734375 248.445312 C 26.660156 250.878906 27.640625 253.292969 28.679688 255.683594 C 29.714844 258.078125 30.808594 260.441406 31.949219 262.785156 C 33.09375 265.125 34.292969 267.441406 35.542969 269.726562 C 36.792969 272.015625 38.09375 274.273438 39.445312 276.5 C 40.796875 278.730469 42.199219 280.925781 43.652344 283.089844 C 45.105469 285.253906 46.605469 287.382812 48.15625 289.480469 C 49.703125 291.574219 51.300781 293.636719 52.941406 295.660156 C 54.585938 297.683594 56.273438 299.667969 58.003906 301.613281 C 94.847656 275.710938 118.273438 232.269531 118.273438 187.265625 Z M 118.273438 187.265625 " fill-opacity="1" fill-rule="nonzero"/><g fill="#1b783f" fill-opacity="1"><g transform="translate(153.24023, 192.140613)"><g><path d="M 4.53125 -8.484375 C 5.625 -8.484375 6.460938 -8.207031 7.046875 -7.65625 C 7.640625 -7.101562 7.9375 -6.289062 7.9375 -5.21875 L 7.9375 0 L 6.84375 0 L 6.84375 -1.3125 C 6.59375 -0.875 6.21875 -0.53125 5.71875 -0.28125 C 5.21875 -0.0390625 4.628906 0.078125 3.953125 0.078125 C 3.015625 0.078125 2.265625 -0.144531 1.703125 -0.59375 C 1.148438 -1.039062 0.875 -1.632812 0.875 -2.375 C 0.875 -3.082031 1.132812 -3.65625 1.65625 -4.09375 C 2.175781 -4.53125 3 -4.75 4.125 -4.75 L 6.796875 -4.75 L 6.796875 -5.265625 C 6.796875 -5.992188 6.59375 -6.546875 6.1875 -6.921875 C 5.78125 -7.296875 5.191406 -7.484375 4.421875 -7.484375 C 3.878906 -7.484375 3.363281 -7.394531 2.875 -7.21875 C 2.382812 -7.039062 1.960938 -6.800781 1.609375 -6.5 L 1.109375 -7.34375 C 1.535156 -7.707031 2.046875 -7.988281 2.640625 -8.1875 C 3.234375 -8.382812 3.863281 -8.484375 4.53125 -8.484375 Z M 4.125 -0.8125 C 4.769531 -0.8125 5.320312 -0.957031 5.78125 -1.25 C 6.238281 -1.550781 6.578125 -1.976562 6.796875 -2.53125 L 6.796875 -3.90625 L 4.15625 -3.90625 C 2.71875 -3.90625 2 -3.40625 2 -2.40625 C 2 -1.90625 2.1875 -1.515625 2.5625 -1.234375 C 2.9375 -0.953125 3.457031 -0.8125 4.125 -0.8125 Z M 4.125 -0.8125 "/></g></g></g><g fill="#1b783f" fill-opacity="1"><g transform="translate(162.709963, 192.140613)"><g><path d="M 5.078125 0.078125 C 4.242188 0.078125 3.5 -0.101562 2.84375 -0.46875 C 2.1875 -0.832031 1.671875 -1.335938 1.296875 -1.984375 C 0.921875 -2.640625 0.734375 -3.378906 0.734375 -4.203125 C 0.734375 -5.023438 0.921875 -5.757812 1.296875 -6.40625 C 1.671875 -7.0625 2.1875 -7.570312 2.84375 -7.9375 C 3.5 -8.300781 4.242188 -8.484375 5.078125 -8.484375 C 5.796875 -8.484375 6.441406 -8.335938 7.015625 -8.046875 C 7.585938 -7.765625 8.039062 -7.351562 8.375 -6.8125 L 7.515625 -6.234375 C 7.242188 -6.648438 6.894531 -6.960938 6.46875 -7.171875 C 6.039062 -7.378906 5.578125 -7.484375 5.078125 -7.484375 C 4.460938 -7.484375 3.910156 -7.347656 3.421875 -7.078125 C 2.941406 -6.804688 2.566406 -6.421875 2.296875 -5.921875 C 2.023438 -5.421875 1.890625 -4.847656 1.890625 -4.203125 C 1.890625 -3.554688 2.023438 -2.984375 2.296875 -2.484375 C 2.566406 -1.992188 2.941406 -1.609375 3.421875 -1.328125 C 3.910156 -1.054688 4.460938 -0.921875 5.078125 -0.921875 C 5.578125 -0.921875 6.039062 -1.019531 6.46875 -1.21875 C 6.894531 -1.425781 7.242188 -1.738281 7.515625 -2.15625 L 8.375 -1.578125 C 8.039062 -1.035156 7.582031 -0.625 7 -0.34375 C 6.425781 -0.0625 5.785156 0.078125 5.078125 0.078125 Z M 5.078125 0.078125 "/></g></g></g><g fill="#1b783f" fill-opacity="1"><g transform="translate(171.571821, 192.140613)"><g><path d="M 8.90625 -3.859375 L 1.875 -3.859375 C 1.9375 -2.984375 2.269531 -2.273438 2.875 -1.734375 C 3.488281 -1.191406 4.257812 -0.921875 5.1875 -0.921875 C 5.707031 -0.921875 6.1875 -1.015625 6.625 -1.203125 C 7.0625 -1.390625 7.441406 -1.664062 7.765625 -2.03125 L 8.40625 -1.296875 C 8.03125 -0.847656 7.5625 -0.503906 7 -0.265625 C 6.4375 -0.0351562 5.820312 0.078125 5.15625 0.078125 C 4.289062 0.078125 3.523438 -0.101562 2.859375 -0.46875 C 2.191406 -0.84375 1.671875 -1.351562 1.296875 -2 C 0.921875 -2.644531 0.734375 -3.378906 0.734375 -4.203125 C 0.734375 -5.023438 0.910156 -5.757812 1.265625 -6.40625 C 1.628906 -7.0625 2.125 -7.570312 2.75 -7.9375 C 3.375 -8.300781 4.070312 -8.484375 4.84375 -8.484375 C 5.625 -8.484375 6.320312 -8.300781 6.9375 -7.9375 C 7.5625 -7.570312 8.046875 -7.066406 8.390625 -6.421875 C 8.742188 -5.773438 8.921875 -5.035156 8.921875 -4.203125 Z M 4.84375 -7.5 C 4.03125 -7.5 3.347656 -7.238281 2.796875 -6.71875 C 2.253906 -6.207031 1.945312 -5.535156 1.875 -4.703125 L 7.84375 -4.703125 C 7.769531 -5.535156 7.457031 -6.207031 6.90625 -6.71875 C 6.351562 -7.238281 5.664062 -7.5 4.84375 -7.5 Z M 4.84375 -7.5 "/></g></g></g><g fill="#1b783f" fill-opacity="1"><g transform="translate(181.233495, 192.140613)"><g><path d="M 5.921875 -8.484375 C 6.710938 -8.484375 7.425781 -8.300781 8.0625 -7.9375 C 8.707031 -7.582031 9.207031 -7.078125 9.5625 -6.421875 C 9.925781 -5.773438 10.109375 -5.035156 10.109375 -4.203125 C 10.109375 -3.367188 9.925781 -2.628906 9.5625 -1.984375 C 9.207031 -1.335938 8.707031 -0.832031 8.0625 -0.46875 C 7.425781 -0.101562 6.710938 0.078125 5.921875 0.078125 C 5.210938 0.078125 4.578125 -0.0664062 4.015625 -0.359375 C 3.460938 -0.660156 3.015625 -1.09375 2.671875 -1.65625 L 2.671875 0 L 1.578125 0 L 1.578125 -11.875 L 2.71875 -11.875 L 2.71875 -6.8125 C 3.070312 -7.351562 3.519531 -7.765625 4.0625 -8.046875 C 4.613281 -8.335938 5.234375 -8.484375 5.921875 -8.484375 Z M 5.84375 -0.921875 C 6.425781 -0.921875 6.957031 -1.054688 7.4375 -1.328125 C 7.914062 -1.609375 8.289062 -2 8.5625 -2.5 C 8.832031 -3 8.96875 -3.566406 8.96875 -4.203125 C 8.96875 -4.847656 8.832031 -5.421875 8.5625 -5.921875 C 8.289062 -6.421875 7.914062 -6.804688 7.4375 -7.078125 C 6.957031 -7.347656 6.425781 -7.484375 5.84375 -7.484375 C 5.238281 -7.484375 4.695312 -7.347656 4.21875 -7.078125 C 3.75 -6.804688 3.378906 -6.421875 3.109375 -5.921875 C 2.835938 -5.421875 2.703125 -4.847656 2.703125 -4.203125 C 2.703125 -3.566406 2.835938 -3 3.109375 -2.5 C 3.378906 -2 3.75 -1.609375 4.21875 -1.328125 C 4.695312 -1.054688 5.238281 -0.921875 5.84375 -0.921875 Z M 5.84375 -0.921875 "/></g></g></g><g fill="#1b783f" fill-opacity="1"><g transform="translate(192.078888, 192.140613)"><g><path d="M 5.03125 0.078125 C 4.21875 0.078125 3.484375 -0.101562 2.828125 -0.46875 C 2.179688 -0.84375 1.671875 -1.351562 1.296875 -2 C 0.921875 -2.644531 0.734375 -3.378906 0.734375 -4.203125 C 0.734375 -5.023438 0.921875 -5.757812 1.296875 -6.40625 C 1.671875 -7.0625 2.179688 -7.570312 2.828125 -7.9375 C 3.484375 -8.300781 4.21875 -8.484375 5.03125 -8.484375 C 5.832031 -8.484375 6.554688 -8.300781 7.203125 -7.9375 C 7.859375 -7.570312 8.367188 -7.0625 8.734375 -6.40625 C 9.109375 -5.757812 9.296875 -5.023438 9.296875 -4.203125 C 9.296875 -3.378906 9.109375 -2.644531 8.734375 -2 C 8.367188 -1.351562 7.859375 -0.84375 7.203125 -0.46875 C 6.554688 -0.101562 5.832031 0.078125 5.03125 0.078125 Z M 5.03125 -0.921875 C 5.625 -0.921875 6.15625 -1.054688 6.625 -1.328125 C 7.101562 -1.609375 7.472656 -2 7.734375 -2.5 C 8.003906 -3 8.140625 -3.566406 8.140625 -4.203125 C 8.140625 -4.847656 8.003906 -5.421875 7.734375 -5.921875 C 7.472656 -6.421875 7.101562 -6.804688 6.625 -7.078125 C 6.15625 -7.347656 5.625 -7.484375 5.03125 -7.484375 C 4.425781 -7.484375 3.882812 -7.347656 3.40625 -7.078125 C 2.9375 -6.804688 2.566406 -6.421875 2.296875 -5.921875 C 2.023438 -5.421875 1.890625 -4.847656 1.890625 -4.203125 C 1.890625 -3.566406 2.023438 -3 2.296875 -2.5 C 2.566406 -2 2.9375 -1.609375 3.40625 -1.328125 C 3.882812 -1.054688 4.425781 -0.921875 5.03125 -0.921875 Z M 5.03125 -0.921875 "/></g></g></g><g fill="#1b783f" fill-opacity="1"><g transform="translate(202.108478, 192.140613)"><g><path d="M 5.03125 0.078125 C 4.21875 0.078125 3.484375 -0.101562 2.828125 -0.46875 C 2.179688 -0.84375 1.671875 -1.351562 1.296875 -2 C 0.921875 -2.644531 0.734375 -3.378906 0.734375 -4.203125 C 0.734375 -5.023438 0.921875 -5.757812 1.296875 -6.40625 C 1.671875 -7.0625 2.179688 -7.570312 2.828125 -7.9375 C 3.484375 -8.300781 4.21875 -8.484375 5.03125 -8.484375 C 5.832031 -8.484375 6.554688 -8.300781 7.203125 -7.9375 C 7.859375 -7.570312 8.367188 -7.0625 8.734375 -6.40625 C 9.109375 -5.757812 9.296875 -5.023438 9.296875 -4.203125 C 9.296875 -3.378906 9.109375 -2.644531 8.734375 -2 C 8.367188 -1.351562 7.859375 -0.84375 7.203125 -0.46875 C 6.554688 -0.101562 5.832031 0.078125 5.03125 0.078125 Z M 5.03125 -0.921875 C 5.625 -0.921875 6.15625 -1.054688 6.625 -1.328125 C 7.101562 -1.609375 7.472656 -2 7.734375 -2.5 C 8.003906 -3 8.140625 -3.566406 8.140625 -4.203125 C 8.140625 -4.847656 8.003906 -5.421875 7.734375 -5.921875 C 7.472656 -6.421875 7.101562 -6.804688 6.625 -7.078125 C 6.15625 -7.347656 5.625 -7.484375 5.03125 -7.484375 C 4.425781 -7.484375 3.882812 -7.347656 3.40625 -7.078125 C 2.9375 -6.804688 2.566406 -6.421875 2.296875 -5.921875 C 2.023438 -5.421875 1.890625 -4.847656 1.890625 -4.203125 C 1.890625 -3.566406 2.023438 -3 2.296875 -2.5 C 2.566406 -2 2.9375 -1.609375 3.40625 -1.328125 C 3.882812 -1.054688 4.425781 -0.921875 5.03125 -0.921875 Z M 5.03125 -0.921875 "/></g></g></g><g fill="#1b783f" fill-opacity="1"><g transform="translate(212.138068, 192.140613)"><g><path d="M 4.703125 -4.21875 L 2.71875 -2.40625 L 2.71875 0 L 1.578125 0 L 1.578125 -11.875 L 2.71875 -11.875 L 2.71875 -3.828125 L 7.75 -8.421875 L 9.15625 -8.421875 L 5.546875 -4.96875 L 9.484375 0 L 8.09375 0 Z M 4.703125 -4.21875 "/></g></g></g></svg>